REM DIRINDEX 1\2\6,1\2\7,1\2\8,1\3\9,1\3\10,1\3\11,1\4\12,1\4\13,1\4\14,1\5\15,1\5\16,1\5\17,1\5\18
REM DIRNAME folder01,folder02,folder03,folder04,folder05,folder06,folder07,folder08,folder09,folder10,folder11,folder12,folder13,folder14,folder15,folder16,folder17,folder18
TITLE ""
FILE "2Q_t_0126-0143.mp3" MP3
  TRACK 01 AUDIO
    TITLE "13:cjc019_2307"
    INDEX 01 00:00:00
  TRACK 02 AUDIO
    TITLE "0:"
    INDEX 01 00:01:24
  TRACK 03 AUDIO
    TITLE "14:cjc019_2308"
    INDEX 01 00:02:00
  TRACK 04 AUDIO
    TITLE "0:"
    INDEX 01 00:05:40
  TRACK 05 AUDIO
    TITLE "13:cjc019_2309"
    INDEX 01 00:06:16
  TRACK 06 AUDIO
    TITLE "0:"
    INDEX 01 00:07:31
  TRACK 07 AUDIO
    TITLE "14:cjc019_2310"
    INDEX 01 00:08:07
  TRACK 08 AUDIO
    TITLE "0:"
    INDEX 01 00:10:70
  TRACK 09 AUDIO
    TITLE "13:cjc019_2311"
    INDEX 01 00:11:46
  TRACK 10 AUDIO
    TITLE "0:"
    INDEX 01 00:12:42
  TRACK 11 AUDIO
    TITLE "14:cjc019_2312"
    INDEX 01 00:13:28
  TRACK 12 AUDIO
    TITLE "0:"
    INDEX 01 00:16:08
  TRACK 13 AUDIO
    TITLE "13:cjc019_2313"
    INDEX 01 00:16:57
  TRACK 14 AUDIO
    TITLE "0:"
    INDEX 01 00:18:25
  TRACK 15 AUDIO
    TITLE "14:cjc019_2314"
    INDEX 01 00:19:03
  TRACK 16 AUDIO
    TITLE "0:"
    INDEX 01 00:20:43
  TRACK 17 AUDIO
    TITLE "13:cjc019_2315"
    INDEX 01 00:21:19
  TRACK 18 AUDIO
    TITLE "0:"
    INDEX 01 00:22:34
  TRACK 19 AUDIO
    TITLE "14:cjc019_2316"
    INDEX 01 00:23:12
  TRACK 20 AUDIO
    TITLE "0:"
    INDEX 01 00:24:16
  TRACK 21 AUDIO
    TITLE "13:cjc019_2317"
    INDEX 01 00:24:67
  TRACK 22 AUDIO
    TITLE "0:"
    INDEX 01 00:26:18
  TRACK 23 AUDIO
    TITLE "14:cjc019_2318"
    INDEX 01 00:26:73
  TRACK 24 AUDIO
    TITLE "0:"
    INDEX 01 00:30:01
  TRACK 25 AUDIO
    TITLE "13:cjc019_2319"
    INDEX 01 00:30:57
  TRACK 26 AUDIO
    TITLE "0:"
    INDEX 01 00:32:13
  TRACK 27 AUDIO
    TITLE "14:cjc019_2320"
    INDEX 01 00:32:66
  TRACK 28 AUDIO
    TITLE "0:"
    INDEX 01 00:35:49
  TRACK 29 AUDIO
    TITLE "13:cjc019_2321"
    INDEX 01 00:36:27
  TRACK 30 AUDIO
    TITLE "0:"
    INDEX 01 00:37:46
  TRACK 31 AUDIO
    TITLE "14:cjc019_2322"
    INDEX 01 00:38:28
  TRACK 32 AUDIO
    TITLE "0:"
    INDEX 01 00:41:30
  TRACK 33 AUDIO
    TITLE "13:cjc019_2323"
    INDEX 01 00:42:06
  TRACK 34 AUDIO
    TITLE "0:"
    INDEX 01 00:43:50
  TRACK 35 AUDIO
    TITLE "14:cjc019_2324"
    INDEX 01 00:44:28
  TRACK 36 AUDIO
    TITLE "0:"
    INDEX 01 00:46:09
  TRACK 37 AUDIO
    TITLE "13:cjc019_2325"
    INDEX 01 00:46:60
  TRACK 38 AUDIO
    TITLE "0:"
    INDEX 01 00:48:02
  TRACK 39 AUDIO
    TITLE "14:cjc019_2326"
    INDEX 01 00:48:55
  TRACK 40 AUDIO
    TITLE "0:"
    INDEX 01 00:52:22
  TRACK 41 AUDIO
    TITLE "13:cjc019_2327"
    INDEX 01 00:52:71
  TRACK 42 AUDIO
    TITLE "0:"
    INDEX 01 00:54:07
  TRACK 43 AUDIO
    TITLE "14:cjc019_2328"
    INDEX 01 00:54:64
  TRACK 44 AUDIO
    TITLE "0:"
    INDEX 01 00:58:17
  TRACK 45 AUDIO
    TITLE "13:cjc019_2329"
    INDEX 01 00:58:69
  TRACK 46 AUDIO
    TITLE "0:"
    INDEX 01 01:00:15
  TRACK 47 AUDIO
    TITLE "14:cjc019_2330"
    INDEX 01 01:00:68
  TRACK 48 AUDIO
    TITLE "0:"
    INDEX 01 01:04:25
  TRACK 49 AUDIO
    TITLE "13:cjc019_2331"
    INDEX 01 01:05:01
  TRACK 50 AUDIO
    TITLE "0:"
    INDEX 01 01:06:16
  TRACK 51 AUDIO
    TITLE "14:cjc019_2332"
    INDEX 01 01:07:00
  TRACK 52 AUDIO
    TITLE "0:"
    INDEX 01 01:10:10
  TRACK 53 AUDIO
    TITLE "13:cjc019_2333"
    INDEX 01 01:10:61
  TRACK 54 AUDIO
    TITLE "0:"
    INDEX 01 01:12:07
  TRACK 55 AUDIO
    TITLE "14:cjc019_2334"
    INDEX 01 01:12:64
  TRACK 56 AUDIO
    TITLE "0:"
    INDEX 01 01:15:64
  TRACK 57 AUDIO
    TITLE "13:cjc019_2335"
    INDEX 01 01:16:42
  TRACK 58 AUDIO
    TITLE "0:"
    INDEX 01 01:17:61
  TRACK 59 AUDIO
    TITLE "14:cjc019_2336"
    INDEX 01 01:18:37
  TRACK 60 AUDIO
    TITLE "0:"
    INDEX 01 01:20:12
  TRACK 61 AUDIO
    TITLE "13:cjc019_2337"
    INDEX 01 01:20:67
  TRACK 62 AUDIO
    TITLE "0:"
    INDEX 01 01:22:01
  TRACK 63 AUDIO
    TITLE "14:cjc019_2338"
    INDEX 01 01:22:56
  TRACK 64 AUDIO
    TITLE "0:"
    INDEX 01 01:23:58
  TRACK 65 AUDIO
    TITLE "13:cjc019_2339"
    INDEX 01 01:24:34
  TRACK 66 AUDIO
    TITLE "0:"
    INDEX 01 01:25:58
  TRACK 67 AUDIO
    TITLE "14:cjc019_2340"
    INDEX 01 01:26:40
  TRACK 68 AUDIO
    TITLE "0:"
    INDEX 01 01:28:16
  TRACK 69 AUDIO
    TITLE "13:cjc019_2341"
    INDEX 01 01:28:67
  TRACK 70 AUDIO
    TITLE "0:"
    INDEX 01 01:30:26
  TRACK 71 AUDIO
    TITLE "14:cjc019_2342"
    INDEX 01 01:31:04
  TRACK 72 AUDIO
    TITLE "0:"
    INDEX 01 01:34:48
